<?xml version="1.0" standalone="no"?>
<!DOCTYPE svg PUBLIC "-//W3C//DTD SVG 20010904//EN"
 "http://www.w3.org/TR/2001/REC-SVG-20010904/DTD/svg10.dtd">
<svg version="1.0" xmlns="http://www.w3.org/2000/svg"
 width="131.000000pt" height="131.000000pt" viewBox="0 0 131.000000 131.000000"
 preserveAspectRatio="xMidYMid meet">
<metadata>
Created by potrace 1.11, written by Peter Selinger 2001-2013
</metadata>
<g transform="translate(0.000000,131.000000) scale(0.100000,-0.100000)"
fill="#000000" stroke="none">
<path d="M239 1298 c-6 -70 1 -116 16 -110 9 4 25 -17 25 -33 0 -7 -45 -10
-122 -10 l-123 0 -3 -274 c-2 -213 1 -276 10 -283 9 -5 108 87 311 290 l297
297 297 -298 c215 -217 299 -295 307 -287 7 7 11 98 11 280 0 234 -2 270 -15
271 -8 1 -102 2 -208 3 -177 1 -195 0 -203 -16 -7 -13 -6 -20 3 -23 7 -3 96
-6 197 -7 l184 -3 0 -208 c0 -114 -2 -209 -5 -212 -3 -3 -130 121 -283 274
-153 154 -283 277 -290 275 -6 -3 -135 -128 -286 -279 -150 -151 -276 -275
-279 -275 -5 0 -6 398 -1 422 0 4 54 9 119 10 l117 3 3 57 c3 50 1 57 -18 63
-13 4 -20 13 -18 23 3 13 15 17 61 18 49 0 57 -2 57 -18 0 -10 -7 -18 -15 -18
-26 0 -37 -59 -21 -107 6 -18 15 -23 44 -23 20 0 42 4 49 8 17 11 1 31 -27 35
-27 4 -41 37 -16 37 26 0 34 36 27 118 -1 17 -201 17 -202 0z"/>
<path d="M614 970 c-58 -23 -64 -106 -10 -139 17 -11 40 -18 51 -16 11 2 23 4
26 4 20 3 49 46 49 74 0 37 -6 47 -40 70 -27 19 -44 20 -76 7z m76 -73 c0 -20
-32 -46 -48 -39 -44 16 -48 52 -9 70 17 7 26 6 40 -6 9 -8 17 -20 17 -25z"/>
<path d="M250 600 c-10 -6 -13 -40 -13 -124 0 -84 -4 -116 -13 -116 -6 0 -17
-6 -23 -14 -21 -25 15 -32 146 -31 133 1 164 11 121 39 -23 15 -24 20 -23 118
1 57 -2 110 -6 119 -7 13 -25 16 -92 16 -46 1 -90 -3 -97 -7z m138 -39 c7 -1
12 -16 12 -40 l0 -38 -60 0 -60 0 0 38 c0 20 4 39 10 41 9 3 61 2 98 -1z m12
-161 c0 -29 -4 -40 -15 -41 -8 0 -34 -1 -57 -1 l-43 -1 -3 41 -3 42 60 0 61 0
0 -40z"/>
<path d="M527 596 c-2 -6 -3 -96 -3 -199 1 -116 -3 -191 -9 -195 -5 -4 -19 -7
-30 -7 -34 -1 -45 -15 -45 -55 0 -47 8 -70 25 -70 16 0 22 17 20 53 l-2 27
176 0 c175 0 218 7 194 31 -7 7 -25 13 -40 15 -15 1 -31 2 -34 3 -3 1 -5 87
-4 191 0 105 -3 196 -7 203 -10 16 -235 19 -241 3z m201 -114 c2 -67 0 -82
-12 -82 -26 0 -30 -23 -7 -41 20 -16 22 -26 19 -91 l-3 -73 -80 0 -79 0 -1
175 c0 96 3 180 6 185 4 6 40 10 81 9 l73 -1 3 -81z"/>
<path d="M858 591 c-2 -9 -4 -64 -3 -123 0 -60 -3 -109 -7 -109 -4 -1 -13 -2
-20 -3 -19 -2 -20 -24 -1 -34 14 -6 193 -9 261 -3 20 2 14 32 -8 38 -19 5 -20
13 -19 119 1 63 -1 118 -5 122 -4 4 -50 7 -101 8 -78 1 -94 -1 -97 -15z m138
-30 c23 -1 25 -4 22 -38 -3 -37 -5 -38 -43 -41 -64 -4 -81 3 -80 35 1 49 2 49
101 44z m22 -161 l-1 -41 -61 3 -60 3 1 33 c1 17 2 34 2 37 1 3 28 5 61 5 l60
0 -2 -40z"/>
<path d="M117 577 c-2 -6 -4 -84 -5 -172 0 -88 -1 -162 -1 -165 -1 -3 -14 -11
-31 -17 -54 -20 -64 -89 -20 -133 18 -18 34 -20 163 -20 125 0 146 2 159 18
29 33 28 51 -1 85 -15 17 -30 40 -34 49 -8 23 -64 57 -85 53 -10 -2 -24 -4
-33 -4 -8 -1 -25 -10 -37 -21 -12 -11 -25 -20 -29 -20 -4 0 -7 77 -7 170 2
154 0 171 -16 180 -13 7 -19 6 -23 -3z m183 -367 c11 -11 20 -27 20 -35 0 -8
9 -19 21 -25 46 -25 14 -35 -117 -36 -114 -1 -131 1 -142 18 -10 13 -10 23 -2
38 14 26 40 25 75 -1 22 -18 29 -20 36 -8 5 8 9 19 9 26 0 20 30 43 56 43 13
0 33 -9 44 -20z"/>
<path d="M1153 583 c-10 -4 -13 -50 -13 -186 l0 -181 -30 29 c-43 41 -104 40
-140 -3 -62 -73 -70 -84 -71 -93 -1 -5 -2 -15 -3 -21 -1 -10 -43 -13 -176 -13
-171 0 -203 -5 -193 -32 4 -10 82 -13 348 -13 l342 0 25 25 c40 40 24 118 -27
131 -13 3 -25 11 -27 17 -3 7 -4 83 -4 170 1 155 -3 180 -31 170z m-71 -370
c10 -9 18 -24 18 -34 0 -29 20 -33 45 -9 31 29 75 21 75 -13 0 -42 -9 -44
-145 -43 -111 1 -130 3 -133 17 -2 10 5 19 18 22 11 3 20 13 20 23 0 46 65 71
102 37z"/>
</g>
</svg>
